<svg width="30" height="31" viewBox="0 0 30 31" fill="none" xmlns="http://www.w3.org/2000/svg">
<path d="M9.20837 30.0833C8.40629 30.0833 7.71942 29.7975 7.14775 29.2258C6.57608 28.6542 6.29074 27.9678 6.29171 27.1667C6.29171 26.3646 6.57754 25.6777 7.14921 25.106C7.72087 24.5344 8.40726 24.249 9.20837 24.25C10.0105 24.25 10.6973 24.5358 11.269 25.1075C11.8407 25.6792 12.126 26.3656 12.125 27.1667C12.125 27.9687 11.8392 28.6556 11.2675 29.2273C10.6959 29.799 10.0095 30.0843 9.20837 30.0833ZM23.7917 30.0833C22.9896 30.0833 22.3027 29.7975 21.7311 29.2258C21.1594 28.6542 20.8741 27.9678 20.875 27.1667C20.875 26.3646 21.1609 25.6777 21.7325 25.106C22.3042 24.5344 22.9906 24.249 23.7917 24.25C24.5938 24.25 25.2807 24.5358 25.8523 25.1075C26.424 25.6792 26.7093 26.3656 26.7084 27.1667C26.7084 27.9687 26.4225 28.6556 25.8509 29.2273C25.2792 29.799 24.5928 30.0843 23.7917 30.0833ZM7.96879 6.74999L11.4688 14.0417H21.6771L25.6875 6.74999H7.96879ZM9.20837 22.7917C8.11462 22.7917 7.28824 22.3114 6.72921 21.3508C6.17018 20.3903 6.14587 19.4365 6.65629 18.4896L8.62504 14.9167L3.37504 3.83333H1.88025C1.46705 3.83333 1.12678 3.69333 0.859416 3.41333C0.592055 3.13333 0.458374 2.78722 0.458374 2.37499C0.458374 1.9618 0.598374 1.6152 0.878374 1.3352C1.15837 1.0552 1.50449 0.915689 1.91671 0.916662H4.2865C4.55386 0.916662 4.80907 0.989578 5.05212 1.13541C5.29518 1.28125 5.47747 1.48784 5.599 1.7552L6.58337 3.83333H28.0938C28.75 3.83333 29.1997 4.07638 29.4427 4.5625C29.6858 5.04861 29.6737 5.55902 29.4063 6.09375L24.2292 15.4271C23.9618 15.9132 23.6094 16.2899 23.1719 16.5573C22.7344 16.8246 22.2362 16.9583 21.6771 16.9583H10.8125L9.20837 19.875H25.2865C25.6997 19.875 26.04 20.015 26.3073 20.295C26.5747 20.575 26.7084 20.9211 26.7084 21.3333C26.7084 21.7465 26.5684 22.0931 26.2884 22.3731C26.0084 22.6531 25.6623 22.7926 25.25 22.7917H9.20837Z" fill="white"/>
</svg>
